<svg width="16" height="16" viewBox="0 0 16 16" fill="none" xmlns="http://www.w3.org/2000/svg">
<g opacity="0.4">
<path d="M7.81111 4.48224C8.05428 4.24096 8.44492 4.23912 8.69035 4.47557L8.70064 4.4857L11.7481 7.55696C11.988 7.79874 11.9914 8.18667 11.7582 8.43257L11.7481 8.44302L8.70064 11.5143C8.45596 11.7609 8.0577 11.7624 7.81111 11.5177C7.56795 11.2765 7.56306 10.8858 7.7976 10.6386L7.80765 10.6282L10.4155 7.99999L7.80765 5.37177C7.56637 5.1286 7.56453 4.73796 7.80098 4.49253L7.81111 4.48224Z" fill="#141E28"/>
<path d="M10.8781 7.371C11.2255 7.371 11.5071 7.65261 11.5071 7.99999C11.5071 8.34324 11.2322 8.62227 10.8905 8.62887L10.8781 8.62899H4.69839C4.35101 8.62899 4.0694 8.34738 4.0694 7.99999C4.0694 7.65675 4.34434 7.37772 4.68601 7.37112L4.69839 7.371H10.8781Z" fill="#141E28"/>
<path fill-rule="evenodd" clip-rule="evenodd" d="M0 8C0 3.58321 3.58321 0 8 0C12.4168 0 16 3.58321 16 8C16 12.4168 12.4168 16 8 16C3.58321 16 0 12.4168 0 8ZM14.742 8C14.742 4.27797 11.722 1.25799 8 1.25799C4.27797 1.25799 1.25799 4.27797 1.25799 8C1.25799 11.722 4.27797 14.742 8 14.742C11.722 14.742 14.742 11.722 14.742 8Z" fill="#141E28"/>
</g>
</svg>
