<svg width="19" height="22" viewBox="0 0 19 22" fill="none" xmlns="http://www.w3.org/2000/svg">
<path fill-rule="evenodd" clip-rule="evenodd" d="M18.5889 15.2247L18.5617 15.1908L18.1638 14.7083L17.9863 14.491L17.9278 14.4181C17.9096 14.3951 17.8917 14.3724 17.8742 14.3498L17.8224 14.2826C17.7884 14.2382 17.7556 14.1944 17.7238 14.1511L17.677 14.0865C17.3394 13.6154 17.1287 13.1978 16.9626 12.6517L16.9463 12.5971L16.9383 12.5695L16.9225 12.5136L16.9071 12.4569L16.892 12.3993L16.8773 12.3409L16.8629 12.2815L16.8559 12.2515L16.842 12.1909L16.8285 12.1293L16.8154 12.0668L16.809 12.0352L16.7964 11.9713L16.7842 11.9064L16.7723 11.8406L16.7665 11.8073L16.7552 11.74L16.7496 11.706L16.7388 11.6372L16.7284 11.5674L16.7183 11.4965L16.7086 11.4247L16.6992 11.3518L16.6902 11.2778L16.6815 11.2028L16.6732 11.1267L16.6692 11.0882L16.6614 11.0104L16.6577 10.9711L16.6505 10.8917L16.6436 10.8111L16.6371 10.7294L16.631 10.6465L16.6252 10.5625L16.6198 10.4773L16.6172 10.4342L16.6123 10.3472L16.6078 10.259L16.6036 10.1696L16.6017 10.1244L16.598 10.0331L16.5948 9.94061L16.5933 9.89388L16.5906 9.79945L16.5882 9.70375L16.5862 9.60676L16.5846 9.50846L16.5833 9.40885L16.5824 9.30791L16.5819 9.20564L16.5817 9.10201C16.5817 7.13495 16.1071 5.59785 15.2173 4.43681C14.5043 3.50631 13.5917 2.882 12.4579 2.41631C12.4527 2.4142 12.4378 2.40385 12.4248 2.39038L12.4189 2.3838L12.4177 2.38227C12.0084 1.01869 10.8796 0 9.50001 0C8.12681 0 7.00152 1.01 6.59018 2.36528L6.5845 2.38435L6.5793 2.39005C6.5668 2.40298 6.55156 2.41346 6.54515 2.41609C5.40872 2.88297 4.49722 3.50584 3.78447 4.43561C2.90387 5.58435 2.43031 7.10235 2.42092 9.04307L2.42054 9.20561L2.41994 9.30786L2.41897 9.40877L2.41765 9.50836L2.41596 9.60664L2.41391 9.70361L2.4115 9.79929L2.40873 9.8937L2.4056 9.98684L2.40211 10.0787L2.39826 10.1694L2.39405 10.2588L2.3918 10.303L2.38705 10.3906L2.38194 10.477L2.37925 10.5198L2.3736 10.6044L2.36759 10.6878L2.36123 10.7701L2.3545 10.8512L2.34742 10.9312L2.33997 11.0101L2.33217 11.0879L2.32401 11.1645L2.31549 11.2401L2.30662 11.3146L2.29739 11.388L2.2878 11.4604L2.27785 11.5317L2.26755 11.6021L2.25689 11.6714L2.25143 11.7056L2.24023 11.7734L2.22868 11.8402L2.21677 11.9061L2.20451 11.9709L2.19825 12.003L2.18545 12.0664L2.17892 12.0978L2.16559 12.1599L2.15191 12.221L2.13787 12.2812L2.13072 12.311L2.11614 12.3699L2.10873 12.399L2.09362 12.4566L2.07817 12.5133L2.06236 12.5692L2.05432 12.5968L2.03798 12.6515C1.84516 13.2845 1.59259 13.7449 1.15201 14.3161L1.0993 14.3838L1.06017 14.4333L0.95316 14.5655L0.439557 15.1892C-0.523371 16.3647 0.350049 18.0714 1.9005 18.0714H5.56218L5.56271 18.1364C5.59748 20.2761 7.34695 22 9.50001 22C11.6748 22 13.4378 20.2411 13.4378 18.0714H17.1044C18.6353 18.0714 19.5022 16.3954 18.5889 15.2247ZM12.6503 16.5H17.1044C17.3469 16.5 17.4437 16.3094 17.3407 16.1834L16.9753 15.7407L16.7936 15.5185L16.7116 15.4171L16.6605 15.3526C16.0756 14.6073 15.7179 13.9712 15.4554 13.1081L15.4358 13.0425C15.4293 13.0205 15.4229 12.9984 15.4166 12.9762L15.3979 12.9091L15.3797 12.8412C15.3586 12.7615 15.3385 12.6801 15.3193 12.5971L15.303 12.5254C15.2977 12.5014 15.2924 12.4773 15.2872 12.4529L15.2719 12.3796C15.2668 12.355 15.2619 12.3302 15.257 12.3053L15.2425 12.2302L15.2354 12.1922L15.2216 12.1157L15.2149 12.0771L15.2017 11.9991L15.189 11.9202L15.1767 11.8404L15.1707 11.8001L15.1591 11.7187L15.1479 11.6364L15.1425 11.5948L15.1319 11.511L15.1218 11.4261L15.1169 11.3832L15.1075 11.2967L15.0984 11.2092L15.0898 11.1206L15.0817 11.0309L15.0739 10.9401L15.0666 10.8482L15.0631 10.8018L15.0564 10.7081L15.0502 10.6134L15.0443 10.5174L15.0389 10.4203L15.0339 10.322L15.0316 10.2724L15.0272 10.1723L15.0233 10.071L15.0215 10.0199L15.0182 9.9167L15.0153 9.81226L15.014 9.75957L15.0117 9.65324L15.0099 9.54561L15.0084 9.43669L15.0074 9.32646L15.0068 9.2149L15.0064 9.05306C14.9991 7.44208 14.6291 6.25648 13.966 5.39124C13.4426 4.70826 12.7546 4.23759 11.8588 3.86963L11.8373 3.86064C11.4089 3.67749 11.046 3.29475 10.9126 2.84627C10.69 2.09026 10.1183 1.57143 9.50001 1.57143C8.8817 1.57143 8.31026 2.09065 8.0899 2.84702L8.08309 2.86945C7.94313 3.31693 7.57571 3.69257 7.14432 3.86938L7.10235 3.88676C6.22423 4.2533 5.55037 4.71878 5.03565 5.39024C4.36635 6.26333 3.99591 7.46411 3.99591 9.10246L3.99583 9.15907L3.99535 9.27129L3.99447 9.38218L3.99317 9.49175L3.99146 9.60002L3.98933 9.70699L3.9868 9.81269L3.98384 9.91712L3.98047 10.0203L3.97668 10.1222L3.97463 10.1727L3.97022 10.2728L3.96539 10.3717L3.96013 10.4694L3.95735 10.5178L3.95146 10.6138L3.94515 10.7085L3.93842 10.8022L3.9349 10.8485L3.92753 10.9405L3.91973 11.0313L3.91151 11.121L3.90286 11.2096L3.89379 11.2971L3.88428 11.3836L3.87434 11.469L3.86397 11.5534L3.85318 11.6367L3.84761 11.678L3.83616 11.7599L3.82428 11.8407L3.81817 11.8807L3.80564 11.9601L3.79266 12.0385L3.77925 12.116L3.7654 12.1926L3.75831 12.2305L3.74381 12.3056L3.72886 12.3799L3.72122 12.4167L3.7056 12.4896L3.69763 12.5257L3.68136 12.5974C3.66486 12.6686 3.64769 12.7385 3.62986 12.8072L3.6118 12.8755L3.6026 12.9094L3.58387 12.9765L3.57434 13.0097L3.55493 13.0757L3.54506 13.1084C3.27758 13.9865 2.91185 14.6296 2.30846 15.3919L2.29517 15.4086L2.214 15.5092L1.94245 15.8407L1.65395 16.1903C1.5599 16.3154 1.65237 16.4935 1.88753 16.4998L1.9005 16.5H6.34975H12.6503ZM7.13731 18.0714C7.13731 19.3732 8.19513 20.4286 9.50001 20.4286C10.7918 20.4286 11.8415 19.3942 11.8624 18.1104L11.8627 18.0714H7.13731Z" fill="#141E28" fill-opacity="0.48"/>
</svg>
